<?xml version="1.0" encoding="UTF-8"?>
<svg version="1.1" xmlns="http://www.w3.org/2000/svg" viewBox="0 0 1028 142" width="1028" height="142" role="img" aria-label="Who Shot Me">
<path d="M0 0 C8.91 0 17.82 0 27 0 C30.37615 10.12844 30.37615 10.12844 31.35034 14.25684 C31.57034 15.18099 31.79035 16.10515 32.01701 17.05731 C32.24214 18.02324 32.46727 18.98917 32.69922 19.98438 C32.81917 20.49369 32.81917 20.49369 33.42622 23.07111 C33.92828 25.20853 34.42818 27.34646 34.92603 29.48486 C35.68889 32.75598 36.46222 36.0245 37.23633 39.29297 C37.72459 41.37746 38.21224 43.46209 38.69922 45.54688 C38.93042 46.5209 39.16162 47.49493 39.39983 48.49847 C39.61037 49.41002 39.82092 50.32157 40.03784 51.26074 C40.13102 51.65909 40.13102 51.65909 40.60258 53.67499 C41.02692 56.15749 41.06859 58.48629 41 61 C41.66 61 42.32 61 43 61 C43.09604 60.0975 43.19207 59.19499 43.29102 58.26514 C44.10087 52.63333 45.78449 47.2187 47.34375 41.75781 C47.6729 40.5937 48.00206 39.42958 48.34119 38.23019 C49.035 35.78045 49.73105 33.33133 50.4292 30.88281 C51.50175 27.11886 52.56583 23.35258 53.62891 19.58594 C54.30419 17.20559 54.97995 14.82537 55.65625 12.44531 C55.97606 11.31312 56.29587 10.18093 56.62537 9.01443 C56.92237 7.976 57.21938 6.93757 57.52539 5.86768 C57.78663 4.94947 58.04786 4.03127 58.31702 3.08524 C59 1 59 1 60 0 C61.78071 -0.08726 63.56483 -0.10699 65.34766 -0.09766 C66.42725 -0.09443 67.50684 -0.09121 68.61914 -0.08789 C69.18729 -0.0837 69.18729 -0.0837 72.0625 -0.0625 C72.63259 -0.06024 72.63259 -0.06024 75.51758 -0.04883 C78.3451 -0.037 81.17253 -0.02051 84 0 C88.17629 12.89259 91.78072 25.91821 95.3125 39 C95.86756 41.04695 96.4229 43.09383 96.97852 45.14062 C98.32221 50.09289 99.66217 55.04615 101 60 C103.62049 50.16119 106.19439 40.31342 108.64062 30.42969 C108.85594 29.56056 109.07125 28.69143 109.29309 27.79596 C110.17339 24.23842 111.05202 20.68049 111.92676 17.12158 C112.57829 14.47351 113.23412 11.82653 113.89062 9.17969 C114.08852 8.3695 114.28641 7.55932 114.4903 6.72458 C115.88652 1.11348 115.88652 1.11348 117 0 C118.99965 -0.08758 121.00236 -0.10697 123.00391 -0.09766 C124.21885 -0.09443 125.43379 -0.09121 126.68555 -0.08789 C127.96494 -0.07951 129.24434 -0.07113 130.5625 -0.0625 C131.84576 -0.05799 133.12902 -0.05348 134.45117 -0.04883 C137.63416 -0.037 140.81706 -0.02051 144 0 C140.40871 15.00642 136.238 29.85937 132.13623 44.73199 C130.6271 50.20453 129.1204 55.67772 127.61518 61.15133 C127.07146 63.12616 126.52591 65.10048 125.98013 67.07474 C124.41882 72.74108 122.87927 78.40796 121.45654 84.11084 C121.34403 84.55837 121.34403 84.55837 120.77464 86.82317 C120.37438 88.43185 119.98381 90.04298 119.60536 91.65694 C118.33033 96.77978 118.33033 96.77978 115 99 C112.3645 99.22705 112.3645 99.22705 109.23828 99.19531 C108.12002 99.18887 107.00176 99.18242 105.84961 99.17578 C105.26599 99.1674 105.26599 99.1674 102.3125 99.125 C101.13365 99.11598 99.9548 99.10695 98.74023 99.09766 C95.82662 99.07406 92.91341 99.04115 90 99 C86.81808 92.38208 84.57489 85.71435 82.58203 78.65625 C82.27932 77.60595 81.9766 76.55564 81.66472 75.47351 C80.70786 72.15073 79.7596 68.82558 78.8125 65.5 C77.85355 62.1462 76.89275 58.79297 75.92815 55.4408 C75.33028 53.36182 74.73587 51.28184 74.14522 49.20081 C74.01157 48.73487 74.01157 48.73487 73.33521 46.37695 C73.10078 45.5536 72.86636 44.73026 72.62483 43.88196 C72 42 72 42 71 41 C65.39 59.81 59.78 78.62 54 98 C50.17359 98.76528 47.29441 99.11896 43.48047 99.09766 C42.55903 99.09516 41.63759 99.09266 40.68823 99.09009 C39.53299 99.08098 38.37775 99.07188 37.1875 99.0625 C35.19182 99.051 33.19613 99.03988 31.20044 99.02905 C29.46696 99.01937 27.73348 99.00968 26 99 C20.19979 79.86747 15.1755 60.56134 10.23352 41.19415 C9.41178 37.97799 8.58602 34.76287 7.76017 31.54776 C6.95945 28.42968 6.16024 25.31121 5.36158 22.1926 C4.98307 20.7146 4.60432 19.23667 4.2253 17.7588 C3.7004 15.7104 3.17731 13.66155 2.65479 11.61255 C2.50657 11.03252 2.50657 11.03252 1.7565 8.09724 C1.10118 5.41426 0.54164 2.70822 0 0 Z " fill="#d4ff3f" transform="translate(13,19)"/>
<path d="M0 0 C4.14582 -0.02887 8.29161 -0.04675 12.4375 -0.0625 C13.6215 -0.07088 14.80551 -0.07926 16.02539 -0.08789 C17.1501 -0.09111 18.2748 -0.09434 19.43359 -0.09766 C20.47572 -0.10289 21.51785 -0.10813 22.59155 -0.11353 C25 0 25 0 26 1 C26.10064 4.03866 26.13615 7.05463 26.12939 10.09375 C26.13027 10.57094 26.13027 10.57094 26.1347 12.98584 C26.13912 16.15724 26.13618 19.32859 26.13281 22.5 C26.13349 24.69336 26.13446 26.88672 26.13571 29.08008 C26.13719 33.6836 26.13503 38.2871 26.13037 42.89062 C26.12467 48.80605 26.12795 54.72142 26.13394 60.63684 C26.13755 65.16797 26.13641 69.69909 26.13382 74.23022 C26.13315 76.41203 26.13398 78.59383 26.1363 80.77563 C26.13882 83.8192 26.13498 86.86269 26.12939 89.90625 C26.13142 90.81746 26.13344 91.72866 26.13553 92.66748 C26.11426 98.88574 26.11426 98.88574 25 100 C17.41 100 9.82 100 2 100 C1.67 82.51 1.34 65.02 1 47 C-3.62 57.23 -8.24 67.46 -13 78 C-19.27 78 -25.54 78 -32 78 C-36.29 68.1 -40.58 58.2 -45 48 C-45.03029 49.83498 -45.03029 49.83498 -45.18359 59.12109 C-45.24533 62.65896 -45.30874 66.19679 -45.37231 69.73462 C-45.41574 72.20139 -45.45741 74.66818 -45.49731 77.13501 C-45.55483 80.67213 -45.61858 84.2091 -45.68359 87.74609 C-45.69195 88.30129 -45.69195 88.30129 -45.73424 91.11095 C-45.75418 92.13193 -45.77413 93.15291 -45.79468 94.20483 C-45.81022 95.10862 -45.82577 96.01241 -45.84178 96.94359 C-46 99 -46 99 -47 100 C-54.59 100 -62.18 100 -70 100 C-70 67.33 -70 34.66 -70 1 C-61.09 1 -52.18 1 -43 1 C-38.78338 9.43323 -34.77827 17.81122 -31.0481 26.448 C-30.17682 28.46218 -29.29666 30.47233 -28.41602 32.48242 C-27.85363 33.77841 -27.29176 35.07463 -26.73047 36.37109 C-26.47987 36.94823 -26.47987 36.94823 -25.21167 39.8689 C-24.15086 42.61016 -23.457 45.10592 -23 48 C-22.34 48 -21.68 48 -21 48 C-20.89059 47.30576 -20.78118 46.61152 -20.66846 45.89624 C-19.90429 42.58532 -18.6993 39.75932 -17.30469 36.66016 C-17.16942 36.35845 -17.16942 36.35845 -16.48489 34.83165 C-15.91069 33.55389 -15.33396 32.27726 -14.75488 31.00171 C-13.89298 29.10213 -13.03956 27.19893 -12.1875 25.29492 C-8.3441 16.74854 -4.25154 8.35095 0 0 Z " fill="#d4ff3f" transform="translate(904,18)"/>
<path d="M0 0 C0.47422 -0.0048 0.47422 -0.0048 2.87405 -0.02911 C3.89385 -0.03336 4.91365 -0.03761 5.96436 -0.04199 C7.02259 -0.04769 8.08081 -0.05339 9.17111 -0.05927 C11.41208 -0.06871 13.65306 -0.07525 15.89404 -0.0791 C19.29794 -0.08877 22.70123 -0.11979 26.10498 -0.15137 C28.28727 -0.1579 30.46956 -0.16315 32.65186 -0.16699 C33.65951 -0.17934 34.66716 -0.19169 35.70535 -0.20441 C44.64144 -0.17668 53.03686 1.0776 59.73779 7.41504 C64.5219 13.10253 66.31654 19.3911 66.36768 26.70483 C66.37728 27.81667 66.38689 28.9285 66.39679 30.07402 C66.40104 31.27195 66.40529 32.46987 66.40967 33.7041 C66.41537 34.94227 66.42107 36.18044 66.42694 37.45613 C66.43639 40.07792 66.44292 42.69973 66.44678 45.32153 C66.45116 47.99745 66.46504 50.67305 66.48779 53.34888 C66.51836 57.21738 66.52884 61.08549 66.53467 64.9541 C66.54701 66.14191 66.55936 67.32971 66.57208 68.55351 C66.54674 78.07466 65.04152 85.87636 59.01904 93.43457 C53.8712 98.33834 46.46057 100.2639 39.50488 100.32227 C39.04067 100.32707 39.04067 100.32707 36.6915 100.35138 C35.69357 100.35563 34.69565 100.35988 33.66748 100.36426 C32.63145 100.36996 31.59541 100.37566 30.52798 100.38153 C28.3341 100.39097 26.14019 100.39751 23.94629 100.40137 C20.61481 100.41104 17.28397 100.44205 13.95264 100.47363 C11.81592 100.48017 9.6792 100.48542 7.54248 100.48926 C6.5567 100.5016 5.57092 100.51395 4.55527 100.52667 C-4.5732 100.49775 -12.87073 98.82783 -20.10205 92.96973 C-25.45717 87.24358 -26.8981 79.39014 -26.95459 71.79517 C-26.9642 70.7467 -26.9738 69.69823 -26.9837 68.618 C-26.98795 67.49399 -26.9922 66.36998 -26.99658 65.21191 C-26.99943 64.62802 -26.99943 64.62802 -27.01385 61.67314 C-27.02329 59.20276 -27.02983 56.73236 -27.03369 54.26196 C-27.04338 50.50482 -27.0744 46.74823 -27.10596 42.99121 C-27.11249 40.58562 -27.11774 38.18002 -27.12158 35.77441 C-27.13393 34.66053 -27.14628 33.54664 -27.159 32.399 C-27.13111 22.51028 -25.73728 14.1675 -18.76221 6.85254 C-13.29818 2.15825 -7.13964 0.05863 0 0 Z M0.20654 24.16113 C-0.98739 26.54901 -0.93907 28.06494 -0.97046 30.73096 C-0.98329 31.67889 -0.99613 32.62683 -1.00935 33.60349 C-1.01674 34.63056 -1.02413 35.65763 -1.03174 36.71582 C-1.03981 37.76891 -1.04788 38.82201 -1.0562 39.90701 C-1.07004 42.13802 -1.08076 44.36906 -1.08862 46.6001 C-1.10585 50.01538 -1.14974 53.4297 -1.19385 56.84473 C-1.20397 59.01008 -1.21249 61.17545 -1.21924 63.34082 C-1.23675 64.36384 -1.25425 65.38686 -1.27229 66.44089 C-1.251 73.38519 -1.251 73.38519 0.76636 76.8064 C4.06499 78.63773 6.99785 78.71722 10.67529 78.65723 C11.39262 78.65868 12.10994 78.66014 12.849 78.66164 C14.36194 78.65998 15.8749 78.64845 17.3877 78.62769 C19.69914 78.59873 22.00828 78.60708 24.31982 78.62012 C25.79249 78.61388 27.26515 78.60549 28.73779 78.59473 C29.42643 78.59766 30.11508 78.6006 30.82458 78.60362 C33.81431 78.54505 35.95232 78.29617 38.61084 76.88403 C41.26857 74.01445 41.33121 70.82788 41.35181 67.03857 C41.35819 66.23739 41.36457 65.43621 41.37114 64.61075 C41.37225 63.75339 41.37337 62.89603 41.37451 62.0127 C41.37784 61.12255 41.38117 60.2324 41.3846 59.31528 C41.38965 57.43415 41.39201 55.55301 41.39185 53.67188 C41.39403 50.80356 41.41219 47.93563 41.43115 45.06738 C41.43409 43.23665 41.43607 41.40593 41.43701 39.5752 C41.4442 38.72189 41.45138 37.86858 41.45879 36.98941 C41.43764 31.43865 41.34651 26.3011 37.20654 22.16113 C31.08735 20.80348 24.94358 20.93997 18.70654 20.91113 C17.5915 20.89051 16.47646 20.86988 15.32764 20.84863 C4.97191 20.79926 4.97191 20.79926 0.20654 24.16113 Z " fill="#d4ff3f" transform="translate(609.79345703125,17.8388671875)"/>
<path d="M0 0 C8.25 0 16.5 0 25 0 C25 12.54 25 25.08 25 38 C35.89 38 46.78 38 58 38 C58 25.46 58 12.92 58 0 C66.25 0 74.5 0 83 0 C83 32.34 83 64.68 83 98 C79.99984 99.00005 78.02576 99.11576 74.89453 99.09766 C74.45162 99.09641 74.45162 99.09641 72.21021 99.09009 C71.08896 99.08098 69.96772 99.07188 68.8125 99.0625 C65.24437 99.04188 61.67625 99.02125 58 99 C58 86.13 58 73.26 58 60 C47.11 60 36.22 60 25 60 C25 72.54 25 85.08 25 98 C17.08798 100.63734 8.34 99 0 99 C0 66.33 0 33.66 0 0 Z " fill="#d4ff3f" transform="translate(164,19)"/>
<path d="M0 0 C8.25 0 16.5 0 25 0 C25 12.54 25 25.08 25 38 C35.56 38 46.12 38 57 38 C57 25.46 57 12.92 57 0 C65.25 0 73.5 0 82 0 C82 32.67 82 65.34 82 99 C74.08 99 66.16 99 58 99 C57 98 57 98 56.88647 94.39819 C56.88663 92.7954 56.89233 91.1926 56.90234 89.58984 C56.90376 88.74781 56.90517 87.90577 56.90663 87.03822 C56.91225 84.33795 56.9248 81.63775 56.9375 78.9375 C56.94251 77.11133 56.94708 75.28516 56.95117 73.45898 C56.96137 68.9726 56.98095 64.48639 57 60 C46.44 60 35.88 60 25 60 C25.0116 62.73152 25.0232 65.46305 25.03516 68.27734 C25.04295 70.9117 25.04902 73.54606 25.05493 76.18042 C25.05997 78.01669 25.0668 79.85295 25.07544 81.68921 C25.08752 84.32276 25.09323 86.95627 25.09766 89.58984 C25.10282 90.41589 25.10798 91.24193 25.1133 92.093 C25.11349 94.06236 25.06204 96.03162 25 98 C23.3883 99.6117 21.63867 99.12988 19.41406 99.13281 C18.94871 99.13346 18.94871 99.13346 16.59375 99.13672 C16.10391 99.13479 16.10391 99.13479 13.625 99.125 C13.13902 99.12693 13.13902 99.12693 10.67969 99.13672 C9.74641 99.13543 8.81313 99.13414 7.85156 99.13281 C7.42271 99.13225 7.42271 99.13225 5.25244 99.12939 C3 99 3 99 0 98 C0 65.66 0 33.32 0 0 Z " fill="#d4ff3f" transform="translate(487,19)"/>
<path d="M0 0 C0.58041 0.00283 0.58041 0.00283 3.51765 0.01715 C7.18539 0.03935 10.8521 0.08951 14.51953 0.14062 C17.02277 0.16071 19.52603 0.17896 22.0293 0.19531 C28.13059 0.23915 34.23114 0.30806 40.33203 0.39062 C40.33203 7.32062 40.33203 14.25062 40.33203 21.39062 C29.64569 22.41406 18.99964 22.70643 8.27466 22.94287 C5.99809 22.99433 3.72173 23.05155 1.44531 23.10938 C1.09486 23.11616 1.09486 23.11616 -0.67863 23.15051 C-5.55485 23.27751 -5.55485 23.27751 -6.66797 24.39062 C-6.74041 26.41027 -6.75174 28.4323 -6.73047 30.45312 C-6.72145 31.55785 -6.71242 32.66258 -6.70312 33.80078 C-6.69152 34.65543 -6.67992 35.51008 -6.66797 36.39062 C-4.05335 37.69794 -2.02707 37.56819 0.89844 37.63672 C1.46144 37.65315 1.46144 37.65315 4.31055 37.73633 C6.67245 37.79682 9.03443 37.85419 11.39648 37.9082 C22.38779 38.239 30.66995 39.22325 39.33203 46.39062 C44.91087 52.68931 44.69752 63.48732 44.51172 71.47656 C43.98899 79.95383 42.39476 87.09185 36.33203 93.39062 C27.42911 99.44634 18.61753 99.5422 8.1875 99.52344 C7.02197 99.52439 5.85644 99.52535 4.65559 99.52634 C2.20049 99.52702 -0.25462 99.52518 -2.70972 99.521 C-6.48425 99.51562 -10.25867 99.52096 -14.0332 99.52734 C-16.41797 99.52668 -18.80273 99.5254 -21.1875 99.52344 C-22.32283 99.52546 -23.45815 99.52749 -24.62788 99.52957 C-25.66954 99.52642 -26.7112 99.52327 -27.78442 99.52002 C-28.70565 99.51922 -29.62687 99.51843 -30.576 99.51761 C-32.66797 99.39062 -32.66797 99.39062 -33.66797 98.39062 C-33.75482 96.8289 -33.77499 95.26333 -33.76562 93.69922 C-33.7624 92.75498 -33.75918 91.81074 -33.75586 90.83789 C-33.74748 89.84467 -33.7391 88.85145 -33.73047 87.82812 C-33.72596 86.83104 -33.72145 85.83395 -33.7168 84.80664 C-33.70497 82.33458 -33.68849 79.86263 -33.66797 77.39062 C-33.37063 77.38547 -33.37063 77.38547 -31.86589 77.35939 C-25.68547 77.25135 -19.50519 77.13675 -13.32495 77.01831 C-11.01737 76.97496 -8.70975 76.93328 -6.4021 76.89331 C-3.08828 76.83562 0.22538 76.77192 3.53906 76.70703 C4.57352 76.69032 5.60798 76.67361 6.67378 76.65639 C7.63455 76.63644 8.59532 76.6165 9.58521 76.59595 C10.00823 76.58818 10.00823 76.58818 12.149 76.54884 C14.33203 76.39062 14.33203 76.39062 17.33203 75.39062 C18.71429 72.6261 18.42729 70.34449 18.39453 67.26562 C18.38551 66.16992 18.37648 65.07422 18.36719 63.94531 C18.35559 63.10227 18.34398 62.25922 18.33203 61.39062 C17.87091 61.38333 17.87091 61.38333 15.53735 61.34644 C12.07602 61.28494 8.61542 61.21071 5.15454 61.12817 C3.66408 61.09517 2.17351 61.06706 0.68286 61.04419 C-20.04481 60.71761 -20.04481 60.71761 -28.23047 53.0625 C-35.24751 44.90138 -34.1924 32.48348 -33.66797 22.39062 C-32.59338 14.85861 -29.56229 9.24053 -23.66797 4.39062 C-15.95279 0.4034 -8.54038 -0.15992 0 0 Z " fill="#d4ff3f" transform="translate(432.66796875,18.609375)"/>
<path d="M0 0 C23.43 0 46.86 0 71 0 C71 7.26 71 14.52 71 22 C56.15 22.33 41.3 22.66 26 23 C25.67 28.28 25.34 33.56 25 39 C36.88 39 48.76 39 61 39 C61 46.26 61 53.52 61 61 C49.12 61 37.24 61 25 61 C25 66.61 25 72.22 25 78 C40.18 78 55.36 78 71 78 C71 85.26 71 92.52 71 100 C47.57 100 24.14 100 0 100 C0 67 0 34 0 0 Z " fill="#d4ff3f" transform="translate(943,18)"/>
<path d="M0 0 C-0.66 2.97 -1.32 5.94 -2 9 C-0.68 8.67 0.64 8.34 2 8 C2.66 5.36 3.32 2.72 4 0 C8.95 0.33 13.9 0.66 19 1 C18.9826 2.07105 18.9652 3.1421 18.94727 4.24561 C18.78062 19.85542 19.58944 35.41207 20.39069 50.99481 C20.68057 56.64377 20.96351 62.29307 21.24345 67.94253 C21.34081 69.8867 21.44165 71.8307 21.5426 73.77469 C21.57263 74.37269 21.57263 74.37269 21.72461 77.39893 C21.7779 78.43558 21.8312 79.47224 21.88611 80.54031 C22.03373 85.02461 22 89.51328 22 94 C10.12 94 -1.76 94 -14 94 C-13.505 91.03 -13.505 91.03 -11 76 C-14.96 76 -18.92 76 -23 76 C-23.26813 77.485 -23.53625 78.97 -23.8125 80.5 C-24.69997 85.41521 -26.16714 89.11237 -28 94 C-40.54 94 -53.08 94 -66 94 C-61.87299 85.74598 -57.81734 77.69069 -53.1875 69.75 C-52.13713 67.9302 -51.08767 66.10988 -50.03906 64.28906 C-49.52505 63.39735 -49.01104 62.50564 -48.48145 61.58691 C-46.30504 57.78646 -44.18006 53.95847 -42.0625 50.125 C-38.17953 43.10585 -34.25723 36.10964 -30.3125 29.125 C-29.75796 28.14177 -29.20342 27.15854 -28.63208 26.14551 C-25.23705 20.14044 -21.78156 14.18383 -18.17188 8.30469 C-16.92919 5.86073 -16.40376 3.70134 -16 1 C-10.65097 0.40801 -5.39115 -0.14187 0 0 Z M-3 13 C-3.67354 14.43429 -4.3386 15.87257 -5 17.3125 C-5.37125 18.11301 -5.7425 18.91352 -6.125 19.73828 C-7 22 -7 22 -7 25 C-5.02 25 -3.04 25 -1 25 C0.59138 20.82263 1.21278 17.46839 1 13 C-0.32 13 -1.64 13 -3 13 Z M-9 30 C-10.32 34.62 -11.64 39.24 -13 44 C-10.36 44 -7.72 44 -5 44 C-2.79601 39.44508 -2.41154 34.97094 -2 30 C-4.31 30 -6.62 30 -9 30 Z M-15 51 C-15.83698 53.45715 -16.66972 55.91559 -17.5 58.375 C-17.73848 59.07367 -17.97695 59.77234 -18.22266 60.49219 C-20 65.77344 -20 65.77344 -20 68 C-16.37 68 -12.74 68 -9 68 C-8.01 62.39 -7.02 56.78 -6 51 C-8.97 51 -11.94 51 -15 51 Z " fill="#d4ff3f" transform="translate(748,36)"/>
<path d="M0 0 C11.46177 9.80719 19.62428 21.85756 22 37 C23.27551 54.00078 19.94856 69.5697 8.59375 82.80469 C-3.05832 95.15989 -16.9824 101.78323 -34 102.5 C-49.3222 101.85464 -64.25565 96.18856 -75 85 C-85.87328 72.80541 -90.67644 57.82122 -90.28125 41.66797 C-89.12424 26.5786 -82.67674 14.52583 -72 4 C-71.43539 3.42508 -70.87078 2.85016 -70.28906 2.25781 C-51.21741 -15.69745 -20.3671 -15.06608 0 0 Z M-70.32422 12.97656 C-79.90068 24.53974 -83.08916 38.21194 -82 53 C-79.47035 65.77834 -73.31716 76.91398 -63 85 C-49.79946 92.92335 -36.74609 96.61179 -21.3125 92.875 C-7.13139 88.44079 2.90402 80.06961 9.75 67 C14.98717 55.85206 16.27514 42.14115 12.03906 30.36328 C5.82513 16.23008 -2.729 5.69543 -17.25 -0.375 C-36.13495 -7.21568 -56.7482 -1.69566 -70.32422 12.97656 Z " fill="#d4ff3f" transform="translate(347,23)"/>
<path d="M0 0 C42.24 0 84.48 0 128 0 C128 3.3 128 6.6 128 10 C127.51849 10.00729 127.51849 10.00729 125.08179 10.04419 C121.48263 10.1025 117.88407 10.17973 114.2854 10.26245 C112.73277 10.29555 111.18002 10.32363 109.6272 10.34644 C107.38508 10.38027 105.14401 10.43259 102.90234 10.48828 C102.21664 10.49467 101.53093 10.50106 100.82445 10.50764 C95.45118 10.66876 90.24909 11.6971 86.36719 15.67188 C85 17 85 17 82.69531 17.32812 C81.84711 17.30234 80.99891 17.27656 80.125 17.25 C79.68414 17.23711 79.68414 17.23711 77.45312 17.17188 C74.89953 16.99296 72.47588 16.66023 70 16 C70 14.02 70 12.04 70 10 C68 11 68 11 66.91797 13.51172 C65 16 65 16 63.1665 16.50244 C60.8721 16.71794 58.61687 16.79549 56.3125 16.8125 C55.51521 16.83764 54.71793 16.86277 53.89648 16.88867 C51.93152 16.9475 49.96571 16.97662 48 17 C47.81438 16.38125 47.62875 15.7625 47.4375 15.125 C45.65958 12.49677 44.07202 12.17524 41.07809 11.39728 C37.33023 10.68078 33.59151 10.63976 29.78516 10.58594 C29.35729 10.57625 29.35729 10.57625 27.192 10.52725 C24.48227 10.46789 21.77249 10.42125 19.0625 10.375 C17.21548 10.33678 15.36847 10.29773 13.52148 10.25781 C9.01446 10.16223 4.50736 10.07804 0 10 C0 6.7 0 3.4 0 0 Z " fill="#d4ff3f" transform="translate(683,18)"/>
<path d="M0 0 C0.64995 1.41478 1.29479 2.83191 1.9375 4.25 C2.11732 4.64445 2.11732 4.64445 3.02734 6.64062 C7.10745 16.53775 5.93887 29.2466 2 39 C-1 39 -1 39 -2.46704 37.62988 C-2.97421 36.99405 -3.48137 36.35822 -4.00391 35.70312 C-4.57504 34.99728 -5.14618 34.29144 -5.73462 33.56421 C-6.33782 32.80052 -6.94102 32.03683 -7.5625 31.25 C-8.82243 29.6832 -10.08285 28.1168 -11.34375 26.55078 C-11.65377 26.16318 -11.65377 26.16318 -13.22266 24.20166 C-15.61779 21.23472 -18.089 18.33939 -20.5625 15.4375 C-24.15298 11.14903 -27.20634 6.84234 -30 2 C-19.9302 0.64932 -10.17759 -0.3186 0 0 Z " fill="#d4ff3f" transform="translate(353,48)"/>
<path d="M0 0 C1.24584 4.69545 2.49093 9.39109 3.73535 14.08691 C4.158 15.68137 4.58085 17.27577 5.00391 18.87012 C5.61512 21.17369 6.22559 23.47745 6.83594 25.78125 C7.02248 26.48367 7.20902 27.18609 7.40121 27.90979 C7.93833 29.93879 8.47033 31.96905 9 34 C9.18975 34.72115 9.37951 35.4423 9.57501 36.1853 C10.53072 39.88903 11.23982 43.16295 11 47 C-7.34043 39.61702 -7.34043 39.61702 -16 35 C-16.93896 23.02821 -12.07665 12.42459 -5 3 C-2.35714 0 -2.35714 0 0 0 Z " fill="#d4ff3f" transform="translate(284,35)"/>
<path d="M0 0 C-1.30214 3.52743 -2.8439 6.50822 -4.94141 9.625 C-5.52108 10.49093 -6.10076 11.35686 -6.698 12.24902 C-7.31328 13.15685 -7.92857 14.06467 -8.5625 15 C-9.19003 15.93103 -9.81756 16.86205 -10.46411 17.82129 C-11.72221 19.68511 -12.9825 21.54744 -14.24512 23.4082 C-15.78104 25.67662 -17.30356 27.95313 -18.82031 30.23438 C-19.60876 31.40666 -20.39777 32.57857 -21.1875 33.75 C-21.86168 34.75547 -22.53586 35.76094 -23.23047 36.79688 C-25 39 -25 39 -28 40 C-29.20307 35.58742 -30.38474 31.16939 -31.5625 26.75 C-31.90475 25.49574 -32.24699 24.24148 -32.59961 22.94922 C-32.91865 21.74395 -33.2377 20.53867 -33.56641 19.29688 C-33.8649 18.18667 -34.1634 17.07646 -34.47095 15.93262 C-34.98008 13.11044 -35.05256 11.63007 -34 9 C-25.25525 0.55001 -11.43484 -0.67374 0 0 Z " fill="#d4ff3f" transform="translate(320,23)"/>
<path d="M0 0 C0.66 0 1.32 0 2 0 C3.3728 1.49707 3.3728 1.49707 4.93359 3.57812 C5.21687 3.9526 5.21687 3.9526 6.65039 5.84766 C7.24014 6.64043 7.82988 7.4332 8.4375 8.25 C9.02338 9.0273 9.60926 9.80461 10.21289 10.60547 C11.81459 12.73258 13.40834 14.86537 15 17 C15.56082 17.69303 16.12165 18.38606 16.69946 19.1001 C18 21 18 21 17.875 23.50781 C15.00586 31.67974 5.84375 38.61679 -1.69141 42.32422 C-8.14145 45 -8.14145 45 -12 45 C-10.68357 36.33477 -8.46689 28.01769 -6.05884 19.60815 C-5.43007 17.41155 -4.80919 15.21283 -4.18945 13.01367 C-1.15629 2.31258 -1.15629 2.31258 0 0 Z " fill="#d4ff3f" transform="translate(334,68)"/>
<path d="M0 0 C10.47063 3.27207 19.06176 8.31783 26 17 C26.69125 18.65662 27.36075 20.32262 28 22 C13.01672 23.69025 -1.92906 25.37563 -17 26 C-16.40202 23.11652 -15.55735 21.01999 -13.92578 18.57422 C-13.50796 17.94524 -13.09015 17.31625 -12.65967 16.66821 C-12.2151 16.01458 -11.77054 15.36094 -11.3125 14.6875 C-11.08764 14.35327 -11.08764 14.35327 -9.94971 12.66187 C-6.8951 8.17427 -3.69489 3.98659 0 0 Z " fill="#d4ff3f" transform="translate(323,24)"/>
<path d="M0 0 C-1.13278 6.48773 -2.71183 12.74902 -4.5625 19.0625 C-4.78446 19.8249 -5.00642 20.5873 -5.23511 21.3728 C-6.87255 26.87255 -6.87255 26.87255 -8 28 C-18.97641 28.86089 -29.68397 27.21069 -39 21 C-39.66 20.01 -40.32 19.02 -41 18 C-36.00548 15.65482 -31.004 13.32486 -26 11 C-24.99888 10.53433 -23.99776 10.06865 -22.96631 9.58887 C-19.70866 8.07581 -16.44837 6.56859 -13.1875 5.0625 C-12.11951 4.56581 -11.05152 4.06912 -9.95117 3.55737 C-8.95021 3.09629 -7.94926 2.63521 -6.91797 2.16016 C-6.01844 1.74387 -5.11892 1.32758 -4.19214 0.89868 C-2 0 -2 0 0 0 Z " fill="#d4ff3f" transform="translate(327,86)"/>
<path d="M0 0 C5.01751 0.58022 9.20086 2.22591 13.73438 4.34375 C14.45361 4.6729 15.17285 5.00206 15.91388 5.34119 C18.19574 6.38741 20.47285 7.44356 22.75 8.5 C24.29527 9.21029 25.84084 9.91993 27.38672 10.62891 C38.0931 15.54655 38.0931 15.54655 41 17 C41 17.66 41 18.32 41 19 C37.09529 20.90067 33.17468 22.76594 29.25 24.625 C28.13883 25.16641 27.02766 25.70781 25.88281 26.26562 C24.81289 26.76836 23.74297 27.27109 22.64062 27.78906 C22.14836 28.02472 22.14836 28.02472 19.65723 29.21729 C17 30 17 30 14.75879 29.25586 C7.02754 23.73538 2.43206 14.07151 0.75 5 C0.48762 3.33524 0.23318 1.6691 0 0 Z " fill="#d4ff3f" transform="translate(268,73)"/>
</svg>
